<svg width="43" height="54" viewBox="0 0 43 54" fill="none" xmlns="http://www.w3.org/2000/svg">
<path d="M2.10001 51V0.5H21.6H41.1V51L22.6 44L2.10001 51Z" fill="#1A1A1A" fill-opacity="0.7"/>
<path d="M1.10001 0.5V52.5L22.6513 45.0149L42.1 52.5V0.5" stroke="#A3A3A3" stroke-opacity="0.4"/>
<path d="M27.1 23.5H22.1V28.5C22.1 29.05 21.65 29.5 21.1 29.5C20.55 29.5 20.1 29.05 20.1 28.5V23.5H15.1C14.55 23.5 14.1 23.05 14.1 22.5C14.1 21.95 14.55 21.5 15.1 21.5H20.1V16.5C20.1 15.95 20.55 15.5 21.1 15.5C21.65 15.5 22.1 15.95 22.1 16.5V21.5H27.1C27.65 21.5 28.1 21.95 28.1 22.5C28.1 23.05 27.65 23.5 27.1 23.5Z" fill="white"/>
</svg>
