<svg width="48" height="40" viewBox="0 0 48 40" fill="none" xmlns="http://www.w3.org/2000/svg">
<rect width="40" height="40" rx="20" fill="#1C2733"/>
<g clip-path="url(#clip0_486_19354)">
<g clip-path="url(#clip1_486_19354)">
<path d="M26.9827 8.40956C26.6139 8.04068 26.4127 7.90667 26.2115 7.80609C25.8092 7.63838 25.3732 7.47067 24.9373 7.50435C24.4678 7.5378 23.8978 7.67206 23.4955 8.17494C22.6906 9.14727 22.9588 9.98558 23.026 10.2876C23.0931 10.5893 23.6632 10.9919 23.9983 11.1593C24.3 11.2934 24.6355 11.4948 25.0715 11.7294C25.2727 11.8634 25.4069 12.0648 25.4404 12.2994C25.4404 12.5342 25.3398 12.7354 25.3063 12.8023C25.3063 12.8023 25.3063 12.8357 25.2729 12.8357C25.2058 12.9029 24.8369 13.1375 24.7029 13.104C24.6694 12.97 24.9041 12.7017 25.0718 12.4334C25.2729 12.1651 24.8706 11.9305 24.8706 11.9305C24.8706 11.9305 23.2611 10.8911 20.4107 10.9245C17.5604 10.9579 16.3869 11.6957 15.9843 11.8634C15.6489 11.9974 15.582 12.2657 15.582 12.3329V12.3663C15.5818 12.3663 15.984 12.7689 15.984 13.1377C15.7829 13.1377 15.4475 12.8694 15.3806 12.8023L15.3472 12.7689C15.3137 12.7017 15.2131 12.4 15.3137 12.0983C15.4143 11.696 16.2526 11.394 16.2526 11.394C16.2526 11.394 17.0909 11.0586 17.4933 10.6563C17.8621 10.2539 17.7282 9.41561 17.7282 9.41561C17.7282 9.41561 17.4598 7.63838 16.0514 7.53785C14.6097 7.43726 14.006 8.17502 14.006 8.17502C14.006 8.17502 13.0671 8.94621 12.6982 10.6228C12.2957 12.2658 12.6309 14.0096 12.6309 14.1101C12.6309 14.2107 13.0669 17.1616 13.8046 19.8106C14.5758 22.4595 16.219 25.4439 16.219 25.4439C16.219 25.4439 18.0633 28.4618 18.298 28.9313C18.3985 29.1661 18.3651 29.4007 18.298 29.6019C18.2308 29.8367 18.0968 30.0041 17.9291 30.1719C17.4597 30.6747 16.2859 31.815 16.2859 31.815C16.2859 31.815 15.6487 32.251 20.3098 32.251C24.971 32.2512 24.3673 31.8487 24.3673 31.8487C24.3673 31.8487 23.3278 30.8093 22.8584 30.4069C22.3889 30.0046 22.3218 29.5686 22.3218 29.5686V29.3674C22.3218 28.9986 22.4895 28.6631 22.7242 28.3951C23.596 27.3219 26.2452 21.4874 26.6809 20.3472C27.1168 19.1066 27.6869 16.6252 27.6869 16.6252C27.6869 16.6252 28.1229 14.479 28.1563 12.2324C28.1901 9.95186 27.3181 8.77842 26.9827 8.40956ZM14.2403 15.552C14.2069 16.8598 14.978 20.6488 14.978 20.7494C15.0115 20.8165 15.6152 22.9626 15.7157 23.2644C15.8163 23.5326 15.5818 23.3649 15.5818 23.3649L14.7434 20.984L13.9722 18.2679C13.9722 18.2007 13.4357 15.887 13.1674 14.0092C12.8656 12.0977 13.3351 10.2199 13.3351 10.2199C13.3351 10.2199 13.7374 8.34217 15.4477 8.37559C16.4872 8.40904 16.9566 8.84503 17.1578 9.18043C17.2918 9.38159 17.2584 9.68332 17.0573 9.85102C16.8896 9.98505 16.6884 10.1864 16.5207 10.287C16.1852 10.4547 15.3135 11.1588 15.28 11.1925C15.2466 11.2259 14.5423 11.863 14.8106 12.7685C15.0454 13.5062 15.6154 13.6403 15.8166 13.6739C15.8837 13.6739 15.9507 13.7411 15.9172 13.808C15.9172 14.0428 15.716 14.3445 15.6154 14.4786C15.6154 14.512 15.582 14.512 15.5483 14.512C15.3806 14.5792 14.5423 14.9143 14.3077 15.1155C14.1734 15.2499 14.2403 15.552 14.2403 15.552ZM27.2174 15.6526C27.0835 16.5244 25.9768 21.2526 25.1049 23.3316C25.0043 23.5328 24.9037 23.4993 24.9372 23.2981C24.9705 23.0969 25.3731 21.8897 25.3731 21.8563C25.4066 21.7892 26.1443 18.8048 26.312 16.927C26.4126 15.7533 26.4126 15.4515 26.4126 15.351V15.2841C26.4126 15.2169 26.3455 15.1164 26.0772 14.9486C25.7083 14.7138 25.2054 14.5464 25.1049 14.5127C25.0714 14.5127 25.0714 14.5127 25.0714 14.4792C25.0043 14.4121 24.7697 14.1104 24.736 13.8086C24.736 13.7415 24.7694 13.6746 24.8366 13.6746C25.1383 13.6075 25.9767 13.3057 25.9097 12.2328C25.8091 10.9585 24.0991 10.2208 24.0991 10.2208C24.0991 10.2208 23.3614 9.91901 23.3614 9.55016C23.3614 9.1813 23.7973 8.71184 24.4346 8.477C25.0717 8.24215 25.8429 8.40986 26.1447 8.54413C26.3795 8.67816 26.8824 9.04702 27.1507 9.58357C27.419 10.1202 27.6872 11.1931 27.6872 11.7968C27.6534 13.4395 27.3179 14.9817 27.2174 15.6526Z" fill="#657182"/>
</g>
</g>
<defs>
<clipPath id="clip0_486_19354">
<rect width="30" height="30" fill="white" transform="translate(5 5)"/>
</clipPath>
<clipPath id="clip1_486_19354">
<rect width="30" height="30" fill="white" transform="translate(5 5)"/>
</clipPath>
</defs>
</svg>
