<svg width="22" height="17" viewBox="0 0 22 17" fill="none" xmlns="http://www.w3.org/2000/svg">
<path d="M16.445 12.7074C14.8781 13.6304 12.97 14.1417 11 14.1666C4.58335 14.1666 0.916687 8.49992 0.916687 8.49992C2.05692 6.85793 3.63839 5.42335 5.55502 4.29242M9.07502 3.00325C9.70599 2.88912 10.352 2.83208 11 2.83325C17.4167 2.83325 21.0834 8.49992 21.0834 8.49992C20.5269 9.30431 19.8633 10.0616 19.1034 10.7595M12.9434 10.0016C12.6916 10.2104 12.388 10.3778 12.0507 10.494C11.7133 10.6101 11.3492 10.6726 10.9799 10.6776C10.6107 10.6826 10.2439 10.6301 9.9015 10.5233C9.55907 10.4164 9.24802 10.2573 8.98688 10.0555C8.72574 9.85374 8.51988 9.61338 8.38157 9.34878C8.24326 9.08418 8.17534 8.80076 8.18185 8.51544C8.18837 8.23011 8.26919 7.94873 8.41949 7.68806C8.56979 7.4274 8.7865 7.19279 9.05669 6.99825M0.916687 0.708252L21.0834 16.2916" stroke="#818181" stroke-width="2" stroke-linecap="round" stroke-linejoin="round"/>
</svg>
