<svg width="27" height="25" viewBox="0 0 27 25" fill="none" xmlns="http://www.w3.org/2000/svg">
<path d="M1.45815 2.88102C1.32396 2.73334 1.2355 2.5499 1.20348 2.35295C1.17147 2.156 1.19728 1.95399 1.27779 1.77142C1.3583 1.58884 1.49004 1.43354 1.65705 1.32435C1.82406 1.21516 2.01916 1.15677 2.2187 1.15625H24.9062C25.106 1.15627 25.3014 1.2143 25.4688 1.3233C25.6362 1.4323 25.7683 1.58757 25.8492 1.77024C25.93 1.95291 25.956 2.15513 25.9241 2.35232C25.8922 2.54951 25.8037 2.73318 25.6693 2.88102L16.6562 12.5V20.0604C16.6563 20.2302 16.6145 20.3974 16.5344 20.5472C16.4544 20.6969 16.3386 20.8246 16.1973 20.9189L12.0723 23.6684C11.9171 23.772 11.7368 23.8315 11.5505 23.8406C11.3642 23.8497 11.1789 23.8082 11.0144 23.7204C10.8498 23.6325 10.7121 23.5017 10.6161 23.3418C10.52 23.182 10.469 22.999 10.4687 22.8125V12.5L1.45815 2.88102Z" stroke="#918E8E" stroke-width="2" stroke-linecap="round" stroke-linejoin="round"/>
</svg>
