<svg width="40" height="40" viewBox="0 0 40 40" fill="none" xmlns="http://www.w3.org/2000/svg">
<rect width="40" height="40" rx="20" fill="#1C2733"/>
<g clip-path="url(#clip0_486_19381)">
<g clip-path="url(#clip1_486_19381)">
<path fill-rule="evenodd" clip-rule="evenodd" d="M19.6734 7.08203C14.6344 7.08203 10.5566 11.0642 10.5566 16.1033C10.5566 21.1015 14.7617 26.3554 17.5008 29.7778C18.5374 31.0729 19.364 32.1058 19.6734 32.7632C19.9826 32.1058 20.8094 31.0727 21.8461 29.7773C24.5853 26.355 28.79 21.1014 28.79 16.1033C28.7898 11.0639 24.7125 7.08203 19.6734 7.08203ZM21.9439 16.5964L24.8855 13.6141C24.9659 13.5344 25.0074 13.4228 24.9993 13.3093C24.991 13.1957 24.9339 13.0915 24.843 13.0245C24.4095 12.7296 23.8883 12.5968 23.3685 12.6486C22.8489 12.7004 22.3633 12.9337 21.9949 13.3085L20.167 15.1676L16.7323 14.3069C16.6559 14.2889 16.5757 14.3117 16.5197 14.3672L15.8693 15.0256C15.8191 15.0756 15.7954 15.1468 15.8054 15.2173C15.8155 15.2879 15.8582 15.3494 15.9203 15.3828L18.5474 16.8073L16.6089 18.7698L14.8661 17.8875C14.785 17.8468 14.6937 17.832 14.6041 17.845C14.5144 17.8582 14.4309 17.8985 14.3645 17.9608L13.9394 18.391C13.8724 18.4638 13.8724 18.5765 13.9394 18.6493L15.3508 20.0393C15.773 20.465 16.3446 20.704 16.9406 20.704C17.5365 20.704 18.1081 20.465 18.5304 20.0393L20.2308 18.3179L21.8674 21.4079C21.9005 21.4708 21.9613 21.514 22.0309 21.5242C22.1005 21.5344 22.1708 21.5104 22.2201 21.4595L22.8749 20.8054C22.9281 20.746 22.9489 20.6639 22.9301 20.5859L21.9439 16.5964Z" fill="#657182"/>
</g>
</g>
<defs>
<clipPath id="clip0_486_19381">
<rect width="30" height="30" fill="white" transform="translate(5 5)"/>
</clipPath>
<clipPath id="clip1_486_19381">
<rect width="30" height="30" fill="white" transform="translate(5 5)"/>
</clipPath>
</defs>
</svg>
