<svg width="48" height="40" viewBox="0 0 48 40" fill="none" xmlns="http://www.w3.org/2000/svg">
<rect width="40" height="40" rx="20" fill="#1C2733"/>
<g clip-path="url(#clip0_486_19337)">
<g clip-path="url(#clip1_486_19337)">
<path d="M20.4169 13.5743V13.2398L23.7847 12.2135L20.4169 11.5079V11.4497C20.4169 11.2961 20.2927 11.1719 20.1391 11.1719C19.9855 11.1719 19.8613 11.2961 19.8613 11.4497V13.5731C19.9078 13.5731 19.9537 13.5722 20.0002 13.5722C20.14 13.5716 20.278 13.5731 20.4169 13.5743Z" fill="#657182"/>
<path d="M9.84718 14.1839L13.1439 12.9482L9.73828 12.4553L9.73468 12.3971C9.72508 12.2438 9.59338 12.1277 9.44008 12.1373C9.28678 12.1469 9.17068 12.2786 9.18028 12.4319L9.34258 15.0158C9.51808 14.963 9.70018 14.9117 9.88948 14.8615L9.84718 14.1839Z" fill="#657182"/>
<path d="M15.3895 11.8745L18.6961 10.6652L15.2947 10.145L15.2914 10.0868C15.283 9.93354 15.1522 9.81624 14.9989 9.82464C14.8456 9.83304 14.7283 9.96384 14.7367 10.1171L14.9509 14.0243C15.1336 14.0069 15.3181 13.9907 15.5047 13.9751L15.3895 11.8745Z" fill="#657182"/>
<path d="M15.2951 20.8387C14.0375 20.4119 13.2704 19.855 13.2704 19.244C13.2704 17.9018 16.9463 16.8137 21.4805 16.8137C26.0146 16.8137 29.6906 17.9018 29.6906 19.244C29.6906 19.5992 29.4271 19.9355 28.9646 20.2397C31.7453 19.6628 33.4991 18.8222 33.4991 17.8868C33.4991 16.1747 27.6773 14.7845 20.4158 14.7329C20.2771 14.732 20.1388 14.7305 19.9991 14.7305C19.9526 14.7305 19.9066 14.731 19.8601 14.7314C18.3331 14.735 16.8676 14.7977 15.5021 14.9105C15.3155 14.9258 15.1313 14.9423 14.9483 14.9597C12.992 15.1442 11.2637 15.4328 9.88756 15.796C9.69826 15.8462 9.51616 15.8975 9.34066 15.9503C7.56166 16.4845 6.49906 17.1563 6.49906 17.8868C6.49906 19.2389 10.1594 20.393 15.2951 20.8387Z" fill="#657182"/>
<path d="M6.67188 20.3281L8.58497 29.0773C9.01547 29.1712 9.46097 29.26 9.92118 29.3434C9.98478 27.2188 10.0949 24.9895 10.232 24.9751C10.232 24.7204 10.4384 24.514 10.6931 24.514C10.9463 24.487 11.1956 24.8758 11.2496 25.3822C11.3411 25.3822 11.6237 27.2551 11.9477 29.6635C13.0706 29.8147 14.2574 29.9347 15.4925 30.0208C15.569 27.8206 15.6863 25.7596 15.8285 25.7443C15.8285 25.447 16.0694 25.2061 16.3666 25.2061C16.6621 25.1746 16.9529 25.6282 17.0161 26.2192C17.1089 26.2192 17.3693 27.8638 17.6834 30.1339C18.4426 30.1603 19.2146 30.1756 19.9994 30.1756C20.7841 30.1756 21.5561 30.1603 22.3154 30.1339C22.6295 27.8638 22.8899 26.2192 22.9826 26.2192C23.0456 25.6282 23.3363 25.1746 23.6321 25.2061C23.9294 25.2061 24.1703 25.447 24.1703 25.7443C24.3125 25.7596 24.4298 27.8206 24.5063 30.0208C25.7414 29.9347 26.9281 29.8147 28.0511 29.6635C28.3751 27.2551 28.6574 25.3822 28.7491 25.3822C28.8031 24.8755 29.0525 24.487 29.3056 24.514C29.5604 24.514 29.7668 24.7204 29.7668 24.9751C29.9039 24.9898 30.0136 27.2188 30.0776 29.3434C30.5375 29.26 30.983 29.1712 31.4138 29.0773L33.3269 20.3281C31.6598 21.4177 26.3261 22.6438 19.9991 22.645C13.6721 22.6438 8.33838 21.4177 6.67188 20.3281Z" fill="#657182"/>
</g>
</g>
<defs>
<clipPath id="clip0_486_19337">
<rect width="30" height="30" fill="white" transform="translate(5 5)"/>
</clipPath>
<clipPath id="clip1_486_19337">
<rect width="30" height="30" fill="white" transform="translate(5 5)"/>
</clipPath>
</defs>
</svg>
