<svg width="40" height="40" viewBox="0 0 40 40" fill="none" xmlns="http://www.w3.org/2000/svg">
<rect width="40" height="40" rx="20" fill="#1C2733"/>
<g clip-path="url(#clip0_486_19317)">
<g clip-path="url(#clip1_486_19317)">
<path d="M19.0278 26.7402H21.2419C21.7393 26.7402 22.1622 26.3422 22.1622 25.8199V24.4516C22.1622 23.9542 21.7641 23.5312 21.2419 23.5312H19.0278C18.5303 23.5312 18.1074 23.9293 18.1074 24.4516V25.8199C18.1323 26.3422 18.5303 26.7402 19.0278 26.7402Z" fill="#657182"/>
<path d="M13.3325 26.7402H15.5465C16.044 26.7402 16.4669 26.3422 16.4669 25.8199V24.4516C16.4669 23.9542 16.0689 23.5312 15.5465 23.5312H13.3325C12.835 23.5312 12.4121 23.9293 12.4121 24.4516V25.8199C12.4121 26.3422 12.8102 26.7402 13.3325 26.7402Z" fill="#657182"/>
<path d="M24.7505 26.7402H26.9645C27.462 26.7402 27.885 26.3422 27.885 25.8199V24.4516C27.885 23.9542 27.4869 23.5312 26.9645 23.5312H24.7505C24.253 23.5312 23.8301 23.9293 23.8301 24.4516V25.8199C23.83 26.3422 24.2528 26.7402 24.7505 26.7402Z" fill="#657182"/>
<path d="M19.0278 21.7677H21.2419C21.7393 21.7677 22.1622 21.3696 22.1622 20.8473V19.479C22.1622 18.9815 21.7641 18.5586 21.2419 18.5586H19.0278C18.5303 18.5586 18.1074 18.9567 18.1074 19.479V20.8473C18.1323 21.3448 18.5303 21.7677 19.0278 21.7677Z" fill="#657182"/>
<path d="M13.3325 21.7677H15.5465C16.044 21.7677 16.4669 21.3696 16.4669 20.8473V19.479C16.4669 18.9815 16.0689 18.5586 15.5465 18.5586H13.3325C12.835 18.5586 12.4121 18.9567 12.4121 19.479V20.8473C12.4121 21.3448 12.8102 21.7677 13.3325 21.7677Z" fill="#657182"/>
<path d="M24.7505 21.7677H26.9645C27.462 21.7677 27.885 21.3696 27.885 20.8473V19.479C27.885 18.9815 27.4869 18.5586 26.9645 18.5586H24.7505C24.253 18.5586 23.8301 18.9567 23.8301 19.479V20.8473C23.83 21.3448 24.2528 21.7677 24.7505 21.7677Z" fill="#657182"/>
<path d="M29.0057 10.375H27.4634V11.37C27.4634 12.4894 26.543 13.41 25.4235 13.41C24.304 13.41 23.3835 12.4896 23.3835 11.37V10.375H16.9155V11.37C16.9155 12.4894 15.9951 13.41 14.8755 13.41C13.7561 13.41 12.8355 12.4896 12.8355 11.37V10.375H11.2932C9.65147 10.375 8.33301 11.6935 8.33301 13.3354V27.8883C8.33301 29.5051 9.65147 30.8486 11.2934 30.8486H29.0056C30.6225 30.8486 31.966 29.5301 31.966 27.8883V13.3354C31.966 11.6935 30.6476 10.375 29.0057 10.375ZM29.7023 27.8634C29.7023 28.2364 29.4038 28.5351 29.0306 28.5351H11.2934C10.9203 28.5351 10.6217 28.2366 10.6217 27.8634V16.7683H29.7022L29.7023 27.8634Z" fill="#657182"/>
<path d="M14.878 12.5115C15.4999 12.5115 16.0224 12.014 16.0224 11.367L16.0222 9.47646C16.0222 8.85454 15.5248 8.33203 14.8778 8.33203C14.2559 8.33203 13.7334 8.82953 13.7334 9.47646L13.7336 11.367C13.7336 12.0139 14.2311 12.5115 14.878 12.5115Z" fill="#657182"/>
<path d="M25.4247 12.5115C26.0466 12.5115 26.5691 12.014 26.5691 11.367V9.47646C26.5691 8.85454 26.0716 8.33203 25.4247 8.33203C24.8027 8.33203 24.2803 8.82953 24.2803 9.47646L24.2805 11.367C24.3052 12.0139 24.8027 12.5115 25.4247 12.5115Z" fill="#657182"/>
</g>
</g>
<defs>
<clipPath id="clip0_486_19317">
<rect width="30" height="30" fill="white" transform="translate(5 5)"/>
</clipPath>
<clipPath id="clip1_486_19317">
<rect width="30" height="30" fill="white" transform="translate(5 5)"/>
</clipPath>
</defs>
</svg>
