<svg width="40" height="44" viewBox="0 0 40 44" fill="none" xmlns="http://www.w3.org/2000/svg">
<rect width="40" height="40" rx="20" fill="#008EFF" fill-opacity="0.25"/>
<path d="M15.9361 12.5811C15.43 12.27 14.794 12.2598 14.2777 12.5503C13.7614 12.8408 13.44 13.3877 13.44 13.9824V26.0137C13.44 26.6084 13.7614 27.1553 14.2777 27.4458C14.794 27.7363 15.43 27.7227 15.9361 27.4151L25.7836 21.3994C26.2725 21.1021 26.57 20.5723 26.57 19.9981C26.57 19.4238 26.2725 18.8975 25.7836 18.5967L15.9361 12.5811Z" fill="#D226C4"/>
<rect x="20" y="24" width="20" height="20" rx="10" fill="#222C38"/>
<path d="M28.908 35.02H26.58V37.492H25.374V35.02H23.058V33.922H25.374V31.462H26.58V33.922H28.908V35.02ZM36.3129 29.824V30.466C36.3129 30.658 36.2929 30.814 36.2529 30.934C36.2129 31.05 36.1729 31.148 36.1329 31.228L32.8449 37.996C32.7769 38.136 32.6809 38.256 32.5569 38.356C32.4329 38.452 32.2669 38.5 32.0589 38.5H30.9849L34.3389 31.87C34.4149 31.734 34.4889 31.61 34.5609 31.498C34.6369 31.382 34.7209 31.272 34.8129 31.168H30.6609C30.5689 31.168 30.4889 31.134 30.4209 31.066C30.3529 30.998 30.3189 30.918 30.3189 30.826V29.824H36.3129Z" fill="#F7F7F8"/>
</svg>
