<svg width="40" height="44" viewBox="0 0 40 44" fill="none" xmlns="http://www.w3.org/2000/svg">
<g clip-path="url(#clip0_485_14643)">
<path d="M11.25 17.875V12.375C11.25 10.187 12.0402 8.08854 13.4467 6.54137C14.8532 4.99419 16.7609 4.125 18.75 4.125H26.25C28.2391 4.125 30.1468 4.99419 31.5533 6.54137C32.9598 8.08854 33.75 10.187 33.75 12.375V20.4325C33.7502 20.5604 33.7339 20.6877 33.7016 20.8106L31.25 30.25V37.125C31.25 37.4897 31.1183 37.8394 30.8839 38.0973C30.6495 38.3551 30.3315 38.5 30 38.5H12.5C12.1685 38.5 11.8505 38.3551 11.6161 38.0973C11.3817 37.8394 11.25 37.4897 11.25 37.125V30.25L5.27344 23.7514C5.09621 23.5074 4.99978 23.2043 5 22.892V17.875C5 16.781 5.39509 15.7318 6.09835 14.9582C6.80161 14.1846 7.75544 13.75 8.75 13.75H11.25" stroke="#657182" stroke-width="3" stroke-linecap="round" stroke-linejoin="round"/>
<path d="M17.5 26.125L25 31.625" stroke="#657182" stroke-width="3" stroke-linecap="round" stroke-linejoin="round"/>
<path d="M25 26.125L17.5 31.625" stroke="#657182" stroke-width="3" stroke-linecap="round" stroke-linejoin="round"/>
</g>
<defs>
<clipPath id="clip0_485_14643">
<rect width="40" height="44" fill="white"/>
</clipPath>
</defs>
</svg>
