<svg width="70" height="70" viewBox="0 0 70 70" fill="none" xmlns="http://www.w3.org/2000/svg">
<g clip-path="url(#clip0_485_11411)">
<rect x="-2.85742" y="-1.42969" width="74.2857" height="71.4286" fill="#EC8164"/>
<path d="M29.2251 29.0909V40H27.233L22.4869 33.1339H22.407V40H20.1005V29.0909H22.1246L26.8335 35.9517H26.9293V29.0909H29.2251ZM34.8169 40.1598C33.9752 40.1598 33.2508 39.9893 32.6436 39.6484C32.0399 39.304 31.5747 38.8175 31.248 38.1889C30.9213 37.5568 30.7579 36.8093 30.7579 35.9464C30.7579 35.1048 30.9213 34.3661 31.248 33.7305C31.5747 33.0948 32.0345 32.5994 32.6276 32.2443C33.2242 31.8892 33.9237 31.7116 34.7263 31.7116C35.2661 31.7116 35.7686 31.7987 36.2338 31.9727C36.7025 32.1431 37.1109 32.4006 37.4589 32.745C37.8105 33.0895 38.0839 33.5227 38.2792 34.0447C38.4745 34.5632 38.5722 35.1705 38.5722 35.8665V36.4897H31.6634V35.0835H36.4362C36.4362 34.7567 36.3651 34.4673 36.2231 34.2152C36.0811 33.9631 35.884 33.766 35.6318 33.6239C35.3833 33.4783 35.0938 33.4055 34.7636 33.4055C34.4191 33.4055 34.1137 33.4854 33.8474 33.6452C33.5846 33.8015 33.3786 34.0128 33.2295 34.2791C33.0803 34.5419 33.004 34.8349 33.0004 35.158V36.495C33.0004 36.8999 33.075 37.2496 33.2242 37.5444C33.3769 37.8391 33.5917 38.0664 33.8687 38.2262C34.1457 38.386 34.4742 38.4659 34.8541 38.4659C35.1063 38.4659 35.3371 38.4304 35.5466 38.3594C35.7561 38.2884 35.9355 38.1818 36.0846 38.0398C36.2338 37.8977 36.3474 37.7237 36.4255 37.5178L38.5242 37.6562C38.4177 38.1605 38.1993 38.6009 37.8691 38.9773C37.5423 39.3501 37.1198 39.6413 36.6013 39.8509C36.0864 40.0568 35.4916 40.1598 34.8169 40.1598ZM41.6084 40L39.3818 31.8182H41.6776L42.9454 37.3153H43.02L44.341 31.8182H46.5942L47.9365 37.2834H48.0058L49.2522 31.8182H51.5427L49.3215 40H46.9191L45.5129 34.8544H45.4117L44.0054 40H41.6084Z" fill="white"/>
</g>
<defs>
<clipPath id="clip0_485_11411">
<rect width="70" height="70" rx="35" fill="white"/>
</clipPath>
</defs>
</svg>
